<?xml version="1.0" standalone="no"?>
<!DOCTYPE svg PUBLIC "-//W3C//DTD SVG 20010904//EN"
 "http://www.w3.org/TR/2001/REC-SVG-20010904/DTD/svg10.dtd">
<svg version="1.0" xmlns="http://www.w3.org/2000/svg"
 width="726.000000pt" height="726.000000pt" viewBox="0 0 726.000000 726.000000"
 preserveAspectRatio="xMidYMid meet">
<metadata>
Created by potrace 1.14, written by Peter Selinger 2001-2017
</metadata>
<g transform="translate(0.000000,726.000000) scale(0.100000,-0.100000)"
fill="#000000" stroke="none">
<path d="M5284 6163 c-60 -65 -134 -145 -164 -178 -30 -33 -57 -62 -60 -65 -3
-3 -52 -57 -110 -120 -58 -63 -128 -140 -156 -170 -28 -30 -102 -111 -165
-180 -62 -69 -116 -127 -119 -130 -3 -3 -75 -81 -160 -175 -85 -93 -178 -194
-206 -224 -45 -47 -50 -57 -40 -73 12 -21 8 -25 201 186 50 54 95 104 100 110
6 6 39 43 74 81 36 39 85 93 110 120 25 28 96 104 156 170 61 66 115 125 120
131 6 6 30 33 55 60 25 27 90 98 145 158 55 61 107 117 115 126 77 83 196 215
202 223 4 6 22 -2 46 -21 69 -55 70 -57 24 -105 -23 -23 -53 -55 -68 -72 -14
-16 -45 -50 -68 -75 -45 -49 -224 -244 -376 -410 -53 -58 -146 -159 -206 -225
-60 -66 -111 -122 -114 -125 -5 -5 -44 -48 -215 -234 -55 -61 -126 -137 -157
-170 -51 -56 -55 -63 -41 -78 14 -15 17 -14 46 20 18 20 39 43 47 52 16 17
172 188 279 305 35 38 69 75 75 80 6 6 31 33 55 60 24 28 65 73 90 100 142
155 267 291 271 295 3 3 50 55 105 115 145 160 193 212 259 282 l59 62 26 -20
c14 -12 58 -49 96 -83 39 -34 111 -98 160 -141 50 -44 95 -84 101 -90 7 -5 55
-48 108 -94 l95 -84 -20 -26 c-11 -14 -37 -44 -57 -66 -21 -22 -91 -101 -157
-175 -66 -74 -122 -137 -125 -140 -3 -3 -100 -111 -215 -240 -115 -129 -225
-253 -245 -274 -47 -52 -45 -50 -130 -146 -77 -87 -137 -154 -155 -174 -6 -6
-52 -57 -102 -112 l-92 -102 63 -60 c53 -52 61 -63 49 -74 -11 -12 -3 -24 54
-78 38 -35 138 -130 223 -211 85 -81 173 -164 195 -184 22 -21 101 -95 175
-165 74 -70 151 -142 170 -160 19 -18 107 -100 195 -184 216 -204 294 -278
335 -316 19 -18 111 -105 205 -194 149 -141 201 -191 350 -331 18 -16 87 -82
153 -144 67 -63 122 -117 122 -120 0 -4 -25 -33 -56 -66 -31 -33 -76 -82 -101
-110 -25 -27 -91 -99 -147 -159 -56 -60 -112 -121 -126 -136 -160 -175 -194
-210 -204 -210 -6 0 -47 35 -91 77 -91 87 -206 197 -346 328 -52 50 -138 131
-190 180 -80 76 -199 189 -415 391 -23 22 -105 100 -184 174 -79 74 -160 151
-180 170 -20 19 -100 94 -176 166 -76 73 -159 151 -184 174 -25 23 -106 100
-182 172 -75 71 -149 141 -165 155 -15 14 -65 61 -110 104 -45 44 -87 79 -92
79 -6 0 -14 -8 -19 -17 -5 -10 -8 -282 -8 -605 1 -516 -1 -588 -14 -589 -8 0
-207 -1 -443 -2 l-427 -2 0 1968 0 1967 -22 1 c-13 1 -35 1 -50 0 l-28 -1 0
75 c0 41 -3 75 -7 76 -10 1 -3074 1 -3090 0 -10 -1 -13 -114 -13 -531 l0 -530
50 0 50 0 0 -75 0 -75 465 0 465 0 0 -1445 c0 -1438 0 -1445 20 -1445 20 0 20
7 20 1445 l0 1445 30 0 30 0 0 -1520 c0 -1513 0 -1520 20 -1520 20 0 20 7 20
1540 0 1460 -1 1540 -17 1541 -10 1 -33 1 -50 1 l-33 1 0 73 c0 52 -4 74 -12
75 -7 0 -217 1 -465 1 l-453 1 0 414 0 413 88 0 c104 1 2763 1 2810 0 l32 0 0
-1962 c0 -1852 1 -1963 17 -1969 10 -3 33 -4 51 -2 l34 4 -4 -76 -3 -75 40 0
c70 -1 969 -2 1000 -1 l30 1 0 595 0 594 29 -27 c16 -15 73 -68 125 -118 53
-50 127 -120 164 -155 38 -35 90 -84 117 -109 26 -25 116 -110 201 -190 84
-80 185 -175 224 -211 38 -37 88 -84 111 -105 23 -22 108 -102 189 -179 81
-77 159 -151 174 -164 28 -26 302 -284 361 -341 21 -19 99 -93 176 -165 168
-159 300 -283 372 -353 30 -28 58 -52 62 -52 4 0 29 24 55 52 27 29 78 85 114
123 64 68 227 246 341 370 30 33 80 87 112 120 31 33 65 71 76 85 l20 25 -62
56 c-55 52 -60 59 -49 78 11 17 10 22 -6 33 -10 7 -83 74 -162 149 -79 76
-162 154 -184 174 -22 21 -104 98 -181 172 -78 73 -154 145 -170 160 -16 14
-101 94 -189 177 -87 83 -174 165 -191 181 -129 122 -332 313 -399 376 -44 42
-98 93 -120 114 -22 20 -78 74 -125 118 -170 163 -403 382 -428 404 -29 25
-31 22 53 113 27 31 66 73 85 95 60 68 294 329 305 341 5 6 33 37 62 70 28 32
62 71 75 85 28 31 153 170 176 197 30 34 146 164 172 192 47 51 95 105 165
185 39 44 90 101 114 127 73 79 74 82 43 108 -99 84 -101 87 -86 108 13 19 12
22 -6 35 -11 8 -40 32 -63 53 -23 22 -76 68 -117 104 -92 80 -128 112 -205
181 -33 30 -89 79 -124 109 -35 30 -69 60 -75 65 -6 6 -48 43 -92 83 l-82 72
-108 -117z m-2226 37 c8 0 12 -18 12 -54 l0 -53 -1468 -1 c-807 0 -1475 -1
-1484 -1 -17 -1 -18 -29 -18 -437 l0 -435 -28 3 -27 3 -3 487 -2 487 22 3 c17
2 2890 1 2996 -2z m2482 -105 c19 -19 32 -35 29 -35 -3 0 -20 16 -39 35 -19
19 -32 35 -29 35 3 0 20 -16 39 -35z m85 -75 c21 -22 37 -40 34 -40 -3 0 -23
18 -44 40 -21 22 -37 40 -34 40 3 0 23 -18 44 -40z m-2455 -1915 l0 -1945 -30
0 -30 0 0 1945 0 1945 30 0 30 0 0 -1945z m2540 1840 c19 -19 32 -35 29 -35
-3 0 -20 16 -39 35 -19 19 -32 35 -29 35 3 0 20 -16 39 -35z m76 -67 l29 -33
-32 29 c-31 28 -38 36 -30 36 2 0 16 -15 33 -32z m89 -80 l40 -43 -45 40 c-25
22 -47 41 -49 43 -2 1 0 2 5 2 6 0 28 -19 49 -42z m89 -74 c15 -14 27 -27 25
-29 -2 -2 -19 10 -37 26 -18 16 -29 29 -25 29 5 0 21 -12 37 -26z m109 -103
c-2 -3 -16 8 -31 24 l-27 28 31 -24 c17 -13 30 -26 27 -28z m125 -169 c13 -11
11 -18 -15 -45 -16 -18 -103 -115 -194 -217 -90 -102 -166 -187 -169 -190 -3
-3 -78 -86 -165 -185 -88 -99 -167 -187 -175 -195 -9 -8 -45 -49 -80 -90 -36
-41 -68 -77 -71 -80 -3 -3 -46 -50 -95 -105 -49 -55 -93 -105 -99 -111 -5 -6
-39 -44 -75 -84 -36 -40 -79 -88 -95 -107 l-30 -33 -47 47 -47 48 37 41 c20
22 69 76 107 120 235 264 330 371 344 385 9 9 43 47 76 84 33 38 81 92 106
119 41 46 120 134 308 345 36 41 71 79 76 85 27 30 165 185 190 214 l29 32 35
-32 c19 -18 41 -39 49 -46z m-5195 -271 c26 -1 27 -3 27 -55 l0 -54 -445 0
-445 0 0 54 0 53 38 3 c29 2 694 1 825 -1z m3216 -1948 c2 -2 -2 -10 -10 -19
-12 -14 -14 -118 -14 -611 l0 -593 -492 0 -493 0 0 53 0 54 443 0 c243 1 451
2 462 2 20 1 20 5 20 584 -1 320 0 586 3 590 2 5 21 -6 41 -25 19 -18 38 -34
40 -35z m2949 -1441 l33 -33 -103 -112 c-57 -62 -128 -139 -159 -172 -31 -33
-81 -87 -110 -119 -30 -33 -69 -75 -88 -95 -18 -20 -69 -75 -114 -123 -44 -49
-85 -88 -91 -88 -6 1 -30 20 -53 43 l-42 42 57 60 c31 34 100 108 152 165 52
57 106 115 120 130 14 14 75 80 135 146 213 230 197 215 214 201 9 -6 31 -27
49 -45z"/>
</g>
</svg>
